Coordinates
version=1
nRows=10
nColumns=22
inDegrees=yes

Units are S.I. units (second, meters, Newtons, ...)
If the header above contains a line with 'inDegrees', this indicates whether rotational values are in degrees (yes) or radians (no).

endheader
time	pelvis_tilt	pelvis_list	pelvis_rotation	pelvis_tx	pelvis_ty	pelvis_tz	hip_flexion_r	hip_adduction_r	hip_rotation_r	knee_angle_r	ankle_angle_r	subtalar_angle_r	hip_flexion_l	hip_adduction_l	hip_rotation_l	knee_angle_l	ankle_angle_l	subtalar_angle_l	lumbar_extension	lumbar_bending	lumbar_rotation
      1.89000000	     -2.15963991	      1.70367087	     54.47116959	      0.34750278	      0.91653941	     -0.08823237	     16.45656454	     -6.94165860	     -0.41622402	    -69.91888301	     -9.92602151	      7.50839555	     18.52803144	      9.02045076	     -6.54958792	    -28.44951602	      9.10231297	    -11.34460084	     -5.75780131	     -7.42736942	      3.27858663
      1.90000000	     -2.05528915	      1.78064328	     55.33302158	      0.35052436	      0.91767421	     -0.09487337	     17.79463861	     -6.90287624	     -0.04427668	    -70.15698380	     -8.48108759	      7.67623661	     17.66681337	      9.25748349	     -5.77279720	    -28.12759232	      9.33222771	    -11.30915504	     -6.08740012	     -7.25652321	      2.65270088
      1.91000000	     -1.93601641	      1.86487809	     56.23593815	      0.35344473	      0.91885013	     -0.10149365	     19.01506874	     -6.85024999	      0.31871521	    -70.07951077	     -6.97694847	      7.75166292	     16.78132811	      9.47212774	     -4.95274317	    -27.79156525	      9.54062778	    -11.26679530	     -6.41519086	     -7.07017631	      2.01785455
      1.92000000	     -1.78612091	      1.98272952	     57.19996606	      0.35625682	      0.92014898	     -0.10815416	     20.05871684	     -6.80211595	      0.63413130	    -69.66746670	     -5.45872407	      7.63124418	     15.81022553	      9.67731705	     -4.03982254	    -27.39460737	      9.68889770	    -11.21480843	     -6.77354456	     -6.86828051	      1.33407475
      1.93000000	     -1.64754522	      2.05719881	     58.20079671	      0.35898362	      0.92134893	     -0.11475595	     21.04448575	     -6.73205987	      0.94629972	    -68.97023061	     -3.88912419	      7.45550170	     14.90584402	      9.83930560	     -3.11968117	    -27.03249004	      9.85469233	    -11.16792121	     -7.06139607	     -6.65256809	      0.63020178
      1.94000000	     -1.49781717	      2.13062315	     59.23747330	      0.36161132	      0.92254291	     -0.12126900	     21.91264292	     -6.65250330	      1.24385723	    -67.98075639	     -2.34995037	      7.13525579	     14.00533946	      9.97969999	     -2.10732698	    -26.68104048	     10.00125987	    -11.12475428	     -7.35116416	     -6.42949831	     -0.08955007
      1.95000000	     -1.35486020	      2.17418548	     60.30558864	      0.36417134	      0.92364791	     -0.12768655	     22.70635985	     -6.56619052	      1.52398613	    -66.72895307	     -0.87731675	      6.74859217	     13.15498493	     10.08695939	     -1.05557554	    -26.35585000	     10.14718645	    -11.08851561	     -7.59723802	     -6.20503950	     -0.83072340
      1.96000000	     -1.22589942	      2.17993771	     61.40029334	      0.36666758	      0.92464375	     -0.13402382	     23.43198744	     -6.49117155	      1.77022455	    -65.21917227	      0.47832393	      6.35269504	     12.36694394	     10.16471434	      0.02813210	    -26.05673521	     10.30035231	    -11.05376341	     -7.78890298	     -5.98157700	     -1.60159391
      1.97000000	     -1.10385873	      2.15623410	     62.51359495	      0.36912730	      0.92553918	     -0.14026398	     24.07913757	     -6.42490845	      1.97715697	    -63.46883417	      1.67421693	      5.94446488	     11.63281764	     10.21228935	      1.14704452	    -25.78818044	     10.46761890	    -11.00759390	     -7.94442309	     -5.76211442	     -2.39307222
      1.98000000	     -0.98581729	      2.10670894	     63.64009991	      0.37158137	      0.92633208	     -0.14641353	     24.64436243	     -6.36629461	      2.14033976	    -61.49736936	      2.68273619	      5.53728492	     10.95065194	     10.22541794	      2.27979378	    -25.55486127	     10.65767432	    -10.93707872	     -8.06763022	     -5.54919400	     -3.19654280
